<?xml version="1.0" encoding="UTF-8"?>
<svg id="_Слой_1" data-name="Слой_1" xmlns="http://www.w3.org/2000/svg" version="1.1" viewBox="0 0 654.77 654.77">
  <!-- Generator: Adobe Illustrator 29.1.0, SVG Export Plug-In . SVG Version: 2.1.0 Build 142)  -->
  <defs>
    <style>
      .st0 {
        fill: #3b62a7;
      }
    </style>
  </defs>
  <path class="st0" d="M327.39,0C146.58,0,0,146.57,0,327.39s146.58,327.38,327.39,327.38,327.38-146.57,327.38-327.38S508.2,0,327.39,0ZM434.09,125.4c81.71-1.65,134.74,86.38,95.32,158.02-39.43,71.66-144.34,72.69-185.28,1.99-40.47-69.89,9.21-158.38,89.96-160.01ZM262.13,153.36c63.83-3.43,68.58,92.04,8.68,97.45-68.5,6.19-73.02-94-8.68-97.45ZM340.27,482.73c-62.21,74.88-183.15,56.51-221.07-32.72-35.9-84.47,25.17-179.83,116.93-181.93,112.37-2.57,176.23,127.89,104.14,214.65ZM499.61,506.06c-60.97,27.01-125.65-27.68-109.25-92.06,7.34-28.82,34.55-54.76,64.68-58.16,94.06-10.59,125.56,114.33,44.57,150.22Z"/>
</svg>